<svg width="1500" height="1500" viewBox="0 0 1500 1500" fill="none" xmlns="http://www.w3.org/2000/svg">
<rect width="1500" height="1500" fill="black"/>
<path d="M338.218 121.148C340.271 121.145 342.325 121.141 344.378 121.137C349.999 121.126 355.621 121.128 361.242 121.133C367.314 121.135 373.386 121.126 379.458 121.119C391.349 121.106 403.24 121.104 415.131 121.106C424.805 121.108 434.48 121.106 444.154 121.102C445.546 121.101 446.939 121.101 448.331 121.1C450.429 121.099 452.528 121.098 454.626 121.097C474.132 121.089 493.639 121.084 513.145 121.089C514.247 121.089 514.247 121.089 515.372 121.089C519.097 121.09 522.821 121.091 526.546 121.092C527.285 121.092 528.025 121.092 528.787 121.092C530.283 121.092 531.779 121.093 533.274 121.093C556.512 121.099 579.749 121.091 602.986 121.072C629.132 121.051 655.277 121.04 681.423 121.044C684.218 121.044 687.013 121.045 689.808 121.045C690.496 121.045 691.184 121.045 691.893 121.045C702.231 121.047 712.569 121.04 722.907 121.029C734.688 121.017 746.469 121.016 758.25 121.028C764.251 121.034 770.251 121.035 776.251 121.023C823.031 120.934 823.031 120.934 845.884 124.456C846.734 124.584 847.585 124.713 848.462 124.845C853.184 125.569 857.875 126.394 862.566 127.308C863.246 127.438 863.925 127.569 864.625 127.703C912.746 136.965 959.18 156.055 999.688 184.296C1000.73 185.017 1000.73 185.017 1001.79 185.753C1011.82 192.734 1021.33 200.223 1030.66 208.152C1032.3 209.537 1033.95 210.904 1035.61 212.262C1040.2 216.036 1044.55 219.858 1048.65 224.192C1050.37 225.953 1052.16 227.561 1054.02 229.176C1061.32 235.626 1068.12 242.712 1074.38 250.217C1076.31 252.505 1078.31 254.718 1080.31 256.94C1098.77 277.883 1114.35 301.69 1127.69 326.289C1128.18 327.178 1128.66 328.067 1129.16 328.983C1151.37 370.152 1164.85 415.599 1170.36 462.197C1170.45 462.855 1170.53 463.513 1170.62 464.191C1172.43 478.077 1172.65 491.855 1172.6 505.85C1172.59 509.526 1172.6 513.201 1172.62 516.876C1172.64 548.531 1168.92 579.376 1161.22 610.054C1161.03 610.837 1160.84 611.62 1160.64 612.427C1160.27 613.906 1159.89 615.381 1159.49 616.852C1158.41 621.175 1158.25 623.632 1160.44 627.518C1161.97 629.741 1163.53 631.895 1165.15 634.047C1212.57 698.728 1239.66 777.848 1247.76 857.75C1247.89 859.03 1247.89 859.03 1248.03 860.335C1249.55 875.431 1250.07 890.376 1249.99 905.546C1249.99 907.168 1249.99 907.168 1249.98 908.823C1249.93 926.017 1249.51 943.073 1247.76 960.188C1247.64 961.394 1247.53 962.6 1247.4 963.843C1245.79 979.872 1243.21 995.542 1239.88 1011.28C1239.72 1012.05 1239.56 1012.82 1239.39 1013.62C1232.86 1044.46 1222.65 1074.42 1210.05 1103.2C1209.71 1104 1209.36 1104.8 1209.01 1105.63C1197.81 1131.65 1182.79 1156.34 1166.39 1179.26C1165.89 1179.96 1165.4 1180.66 1164.88 1181.38C1158.56 1190.21 1151.99 1198.74 1144.97 1207.01C1143.49 1208.77 1142.02 1210.55 1140.55 1212.33C1135.49 1218.46 1130.36 1224.36 1124.73 1229.96C1122.79 1231.95 1120.99 1233.99 1119.2 1236.12C1113.99 1242.3 1108.33 1247.89 1102.28 1253.2C1099.79 1255.44 1097.37 1257.74 1094.95 1260.06C1088.54 1266.22 1081.98 1272.04 1075.1 1277.64C1073.99 1278.58 1072.89 1279.51 1071.78 1280.45C1062.74 1288.03 1053.3 1294.85 1043.58 1301.48C1041.59 1302.84 1039.62 1304.23 1037.66 1305.62C1027.61 1312.71 1017.03 1318.8 1006.33 1324.82C1004.02 1326.12 1001.72 1327.44 999.421 1328.77C971.79 1344.46 941.03 1356.13 910.382 1363.85C909.387 1364.11 908.392 1364.37 907.367 1364.63C860.426 1376.68 814.329 1379.39 766.124 1379.35C760.11 1379.35 754.096 1379.35 748.081 1379.36C736.345 1379.38 724.608 1379.38 712.871 1379.37C703.332 1379.37 693.792 1379.37 684.252 1379.38C682.875 1379.38 681.498 1379.38 680.12 1379.38C678.045 1379.38 675.969 1379.38 673.893 1379.38C654.641 1379.39 635.389 1379.4 616.137 1379.39C615.414 1379.39 614.691 1379.39 613.946 1379.39C610.282 1379.39 606.618 1379.39 602.954 1379.39C602.227 1379.39 601.499 1379.39 600.75 1379.39C599.278 1379.39 597.807 1379.39 596.336 1379.39C573.402 1379.38 550.468 1379.39 527.535 1379.41C501.702 1379.43 475.869 1379.44 450.036 1379.44C447.281 1379.44 444.526 1379.44 441.771 1379.44C440.754 1379.44 440.754 1379.44 439.716 1379.44C429.501 1379.43 419.285 1379.44 409.07 1379.45C397.46 1379.46 385.85 1379.47 374.241 1379.45C368.322 1379.45 362.404 1379.45 356.486 1379.46C351.063 1379.47 345.641 1379.47 340.219 1379.45C338.263 1379.45 336.307 1379.45 334.351 1379.46C320.58 1379.51 307.278 1379.08 294.854 1372.22C294.187 1371.87 293.52 1371.51 292.832 1371.14C287.517 1368.23 282.763 1364.97 278.295 1360.81C277.494 1360.09 276.694 1359.36 275.869 1358.61C262.639 1345.94 255.284 1330.12 251.503 1312.13C251.244 1311.03 251.244 1311.03 250.979 1309.91C250.395 1306.35 250.373 1302.86 250.383 1299.26C250.382 1298.48 250.38 1297.7 250.378 1296.89C250.373 1294.26 250.376 1291.62 250.378 1288.99C250.376 1287.08 250.374 1285.17 250.371 1283.26C250.365 1277.97 250.364 1272.69 250.365 1267.41C250.365 1261.67 250.359 1255.94 250.354 1250.2C250.345 1238.82 250.341 1227.43 250.339 1216.04C250.337 1206.57 250.332 1197.09 250.326 1187.62C250.326 1186.94 250.325 1186.26 250.325 1185.56C250.323 1182.78 250.322 1180 250.32 1177.23C250.298 1143.57 250.288 1109.91 250.279 1076.25C250.276 1065.33 250.272 1054.41 250.269 1043.5C250.268 1042.34 250.268 1042.34 250.268 1041.17C250.267 1038.05 250.266 1034.94 250.265 1031.82C250.247 978.533 250.232 925.245 250.224 871.958C250.224 867.772 250.223 863.586 250.223 859.4C250.222 858.569 250.222 857.739 250.222 856.883C250.221 848.47 250.22 840.058 250.219 831.645C250.218 829.958 250.218 828.271 250.218 826.584C250.21 772.415 250.188 718.245 250.156 664.075C250.133 625.155 250.111 586.235 250.104 547.316C250.104 546.515 250.104 545.715 250.104 544.89C250.1 527.317 250.098 509.743 250.097 492.17C250.097 485.099 250.097 478.028 250.096 470.957C250.096 470.183 250.096 469.409 250.096 468.612C250.094 443.689 250.08 418.765 250.059 393.842C250.039 368.734 250.031 343.627 250.04 318.52C250.042 315.048 250.043 311.577 250.044 308.106C250.044 307.085 250.044 307.085 250.045 306.044C250.048 294.626 250.036 283.207 250.019 271.789C250.006 261.852 250.007 251.915 250.019 241.978C250.026 236.315 250.027 230.653 250.01 224.99C249.995 219.834 249.998 214.678 250.015 209.521C250.018 207.672 250.015 205.823 250.004 203.973C249.87 179.912 257.193 160.038 273.516 142.399C292.3 124.327 313.645 121.096 338.218 121.148Z" fill="#F0FAFF"/>
<path d="M398.843 278.62C813.408 278.62 813.408 278.62 830.302 282.867C831.64 283.193 831.64 283.193 833.006 283.525C861.773 290.718 889.617 301.469 913.84 319.189C914.793 319.885 915.746 320.58 916.728 321.297C934.427 334.549 951.17 349.961 964.447 367.873C964.854 368.408 965.261 368.944 965.68 369.496C997.362 411.292 1013.54 460.535 1013.44 513.226C1013.44 514.252 1013.44 515.278 1013.44 516.336C1013.41 532.748 1012.56 548.551 1009.1 564.635C1008.91 565.511 1008.73 566.388 1008.54 567.291C1007.3 572.908 1005.81 578.411 1004.14 583.905C1003.9 584.7 1003.66 585.494 1003.42 586.313C995.069 613.583 981.669 637.628 964.447 659.973C964.027 660.522 963.608 661.072 963.175 661.638C951.603 676.641 937.863 691.264 922.771 702.571C922.173 703.025 921.574 703.478 920.957 703.945C910.731 711.659 900.198 718.672 889.033 724.884C888.422 725.229 887.81 725.573 887.18 725.928C853.233 744.664 814.674 750.653 776.61 750.438C774.798 750.435 772.986 750.433 771.173 750.432C764.567 750.422 757.96 750.393 751.353 750.367C736.536 750.325 721.719 750.283 706.452 750.24C706.452 698.362 706.452 646.484 706.452 593.033C747.694 592.716 747.694 592.716 760.627 592.64C764.515 592.603 764.515 592.603 768.403 592.562C770.11 592.546 771.817 592.535 773.524 592.529C795.033 592.446 814.384 589.151 831.481 574.777C832.192 574.215 832.903 573.653 833.636 573.074C847.6 561.511 856.139 543.136 858.272 525.079C860.064 502.562 856.084 483.087 842.582 464.922C833.884 454.533 824.595 447.688 812.627 441.912C811.881 441.547 811.136 441.182 810.367 440.807C799.276 435.989 786.53 436.549 774.708 436.594C773.029 436.593 771.351 436.591 769.672 436.589C765.152 436.584 760.631 436.591 756.111 436.602C751.362 436.611 746.613 436.609 741.865 436.608C733.897 436.609 725.93 436.618 717.963 436.632C708.768 436.648 699.573 436.653 690.378 436.653C680.558 436.652 670.739 436.659 660.919 436.668C658.101 436.67 655.283 436.671 652.465 436.672C648.031 436.673 643.597 436.679 639.163 436.689C637.541 436.692 635.919 436.693 634.297 436.693C612.987 436.688 595.141 440.632 578.447 455.097C577.457 455.872 577.457 455.872 576.447 456.662C563.504 467.209 556.412 483.396 553.64 499.724C553.259 504.465 553.241 509.172 553.269 513.927C553.266 515.309 553.262 516.692 553.257 518.074C553.246 521.835 553.254 525.596 553.265 529.357C553.274 533.428 553.266 537.499 553.26 541.569C553.25 549.529 553.257 557.489 553.269 565.449C553.282 574.73 553.281 584.011 553.279 593.292C553.276 609.859 553.287 626.426 553.307 642.993C553.325 659.046 553.332 675.1 553.327 691.153C553.321 708.66 553.321 726.166 553.332 743.673C553.334 745.542 553.335 747.411 553.336 749.28C553.336 750.199 553.337 751.118 553.338 752.066C553.342 758.526 553.341 764.986 553.339 771.446C553.337 779.325 553.342 787.205 553.357 795.084C553.364 799.099 553.368 803.115 553.363 807.13C553.359 810.814 553.365 814.498 553.377 818.181C553.381 820.128 553.376 822.075 553.37 824.021C553.423 834.937 554.353 845.707 558.353 855.911C558.615 856.596 558.877 857.281 559.147 857.986C566.75 877.287 581.212 892.87 599.819 901.437C612.14 906.172 623.848 907.021 636.851 906.942C638.671 906.946 640.49 906.951 642.31 906.958C647.209 906.972 652.108 906.961 657.007 906.945C662.18 906.93 667.352 906.937 672.525 906.941C681.224 906.943 689.923 906.93 698.621 906.906C708.594 906.879 718.567 906.877 728.541 906.889C738.217 906.9 747.894 906.894 757.57 906.88C761.646 906.874 765.723 906.874 769.799 906.879C798.905 906.905 827.629 906.098 856.288 900.348C857.146 900.183 858.004 900.019 858.888 899.85C901.881 891.589 944.359 875.917 981.316 851.664C982.123 851.136 982.93 850.609 983.762 850.065C1000.71 838.908 1016.78 826.731 1031.92 813.123C1032.83 812.311 1033.73 811.499 1034.67 810.663C1044.73 801.425 1054.16 791.501 1063.68 781.682C1066.14 784.748 1067.55 787.666 1068.9 791.376C1069.52 793.045 1069.52 793.045 1070.14 794.748C1070.57 795.938 1070.99 797.127 1071.43 798.353C1071.87 799.585 1072.31 800.818 1072.76 802.087C1079.56 821.328 1084.26 840.603 1087.49 860.792C1087.74 862.33 1087.74 862.33 1087.99 863.898C1094.65 907.215 1091.66 955.888 1078.56 997.714C1078.3 998.57 1078.04 999.425 1077.77 1000.31C1064.46 1043.82 1043.24 1082.36 1013.17 1116.06C1011.36 1118.1 1009.61 1120.17 1007.86 1122.28C1004.63 1126.06 1001.21 1129.62 997.751 1133.18C997.229 1133.72 996.708 1134.25 996.17 1134.81C992.045 1139.01 987.72 1142.93 983.301 1146.81C982.671 1147.36 982.042 1147.92 981.393 1148.49C966.264 1161.71 950.06 1173.36 932.694 1183.32C931.946 1183.75 931.197 1184.18 930.426 1184.63C909.42 1196.6 887.351 1205.1 864.226 1211.72C863.534 1211.92 862.841 1212.13 862.128 1212.34C853.281 1214.97 844.36 1216.53 835.264 1217.93C834.222 1218.09 833.181 1218.25 832.108 1218.42C689.143 1239.37 543.269 1221.86 398.843 1221.86C398.843 910.591 398.843 599.322 398.843 278.62Z" fill="black"/>
</svg>
